<mxfile host="app.diagrams.net" modified="2024-02-26T22:26:36.312Z" agent="Mozilla/5.0 (Macintosh; Intel Mac OS X 10_15_7) AppleWebKit/537.36 (KHTML, like Gecko) Chrome/122.0.0.0 Safari/537.36" version="23.1.7" etag="e45JUUJjiWVzziaDxLwa" type="github">
  <diagram name="PÃ¡gina-1" id="lQS-18Pp-lYNZDUGBFUn">
    <mxGraphModel>
      <root>
        <mxCell id="0" />
        <mxCell id="1" parent="0" />
      </root>
    </mxGraphModel>
  </diagram>
</mxfile>
